Coordinates
version=1
nRows=15
nColumns=34
inDegrees=yes

Units are S.I. units (second, meters, Newtons, ...)
If the header above contains a line with 'inDegrees', this indicates whether rotational values are in degrees (yes) or radians (no).

endheader
time	pelvis_tilt	pelvis_list	pelvis_rotation	pelvis_tx	pelvis_ty	pelvis_tz	hip_flexion_r	hip_adduction_r	hip_rotation_r	knee_angle_r	ankle_angle_r	subtalar_angle_r	mtp_angle_r	hip_flexion_l	hip_adduction_l	hip_rotation_l	knee_angle_l	ankle_angle_l	subtalar_angle_l	mtp_angle_l	lumbar_extension	lumbar_bending	lumbar_rotation	arm_flex_r	arm_add_r	arm_rot_r	elbow_flex_r	pro_sup_r	arm_flex_l	arm_add_l	arm_rot_l	elbow_flex_l	pro_sup_l
      0.00000000	     -1.46092578	     -4.02351796	     -3.63970754	     -1.56790338	      0.99010645	      0.02916372	     -0.42645845	      6.22617478	     -1.15311893	      7.48099785	      1.49926088	    -11.21712586	      0.00000000	     -2.80627029	     -3.41389252	     -3.78849117	      1.53978084	     14.13670024	     -0.22731792	      0.00000000	     -0.47916681	      5.84570490	     -5.16438169	      3.21655770	     -5.31673785	      9.34858797	     22.59124716	     86.08115239	     -4.88780098	     -3.92631511	      2.24191637	     29.73565469	     83.41783315
      0.01666670	     -4.34869594	     -1.61003024	     -3.82477160	     -1.56437503	      0.98455507	      0.02931708	      3.13999668	      4.16397862	      0.11942611	      7.48473279	      5.73654667	     -8.63614844	      0.00000000	      1.48744343	     -0.43576721	     -4.26530612	      3.03162334	     13.80384443	      0.19620644	      0.00000000	      4.33982443	      3.73506144	     -5.19624321	      1.74436940	     -4.87750829	      8.50471528	     22.07255412	     86.31189397	     -5.58669336	     -4.15098746	      0.58557597	     28.80410625	     82.92434361
      0.03333330	     -4.89567859	     -0.32132051	     -4.19869088	     -1.56410648	      0.98338047	      0.03031000	      3.60969559	      2.70951735	     -0.25073726	      6.94756693	      7.03390619	     -6.54624731	      0.00000000	      2.11330168	      0.90984670	     -5.88878932	      3.41621430	     13.61814301	      1.18779716	      0.00000000	      5.58090263	      2.37946651	     -5.00229736	      1.48702962	     -4.78173492	      9.05567500	     22.10104328	     86.86695528	     -5.87568168	     -4.95049427	      1.95980256	     28.55365616	     82.90547506
      0.05000000	     -4.27987319	      0.09644954	     -4.32340523	     -1.56427733	      0.98570050	      0.03053574	      2.71505024	      2.16013768	     -0.35661551	      6.51039818	      7.99302270	     -5.21681745	      0.00000000	      0.84940129	      1.58189708	     -6.07412637	      2.69793258	     13.11866018	      1.11163079	      0.00000000	      5.17089458	      1.94599182	     -4.59215198	      1.46376468	     -4.90832439	     10.68783613	     22.01971558	     87.92540187	     -5.50136293	     -5.77930963	      6.24153732	     28.06393131	     83.06225986
      0.06666670	     -4.26116988	      0.21831001	     -4.42387209	     -1.56500520	      0.98651575	      0.03092798	      2.52155752	      2.11093776	      0.09716613	      6.07722076	      8.34601399	     -5.10975750	      0.00000000	      0.74368364	      1.77051979	     -6.23687016	      2.53171887	     12.86169939	      1.07474527	      0.00000000	      5.27005506	      1.88222931	     -4.60072960	      1.48749687	     -4.88761623	     10.75341299	     22.07746377	     87.96976114	     -5.54442729	     -5.83960310	      6.42978386	     27.94713544	     83.04435695
      0.08333330	     -3.55652642	      0.10781190	     -4.47931755	     -1.56589303	      0.98827653	      0.03105328	      1.58345517	      2.22536357	      0.39613233	      5.71400792	      8.54271406	     -4.68098882	      0.00000000	     -0.21239535	      1.76520479	     -6.12486727	      2.00227051	     12.42351339	      0.81934125	      0.00000000	      4.48927205	      2.05232748	     -4.10782970	      1.49814547	     -5.22819257	     11.99242968	     22.27819115	     88.91611457	     -4.26448404	     -6.32720154	     10.50465882	     26.32093073	     82.30602592
      0.10000000	     -3.52731003	      0.10937343	     -4.48090293	     -1.56621330	      0.98847107	      0.03115586	      1.55104397	      2.23521959	      0.40362370	      5.72389055	      8.54634753	     -4.67926996	      0.00000000	     -0.15614946	      1.77178813	     -6.12649339	      1.97670824	     12.41764195	      0.82002865	      0.00000000	      4.49120652	      2.05009775	     -4.11038330	      1.50288825	     -5.22957212	     11.99175805	     22.27891219	     88.91627316	     -4.25186412	     -6.32670746	     10.50487230	     26.32456722	     82.30474069
      0.11666670	     -2.85440848	      0.05727641	     -4.35454026	     -1.56653465	      0.98900056	      0.03112173	      0.65738263	      2.28472887	      0.94287610	      5.50298619	      8.75181853	     -4.82042496	      0.00000000	     -0.86138820	      1.75545409	     -5.98895207	      1.76335380	     11.60172550	      0.44699810	      0.00000000	      3.45692149	      1.92696620	     -3.96809206	      1.89344725	     -5.20608708	     11.86841822	     22.11817338	     88.99282042	     -3.30230873	     -6.39640363	     10.74179096	     25.92716480	     81.81976527
      0.13333330	     -2.77377433	      0.02643595	     -4.16451140	     -1.56552270	      0.98817928	      0.03097930	      0.43039097	      2.32911433	      0.99260017	      5.43024764	      8.80053105	     -4.87802902	      0.00000000	     -0.84077764	      1.68509813	     -5.93128080	      1.92487203	     11.43621614	      0.44906454	      0.00000000	      3.35639901	      1.88452708	     -4.06615233	      1.80939170	     -5.17934826	     11.85113042	     22.08941277	     89.00951976	     -3.11587185	     -6.49025687	     10.77799132	     25.84437491	     81.71890510
      0.15000000	     -2.74329568	      0.01180722	     -4.05612497	     -1.56434142	      0.98739242	      0.03091256	      0.31805280	      2.34843480	      1.04508752	      5.49688016	      8.79284478	     -4.87593559	      0.00000000	     -0.88699375	      1.64100211	     -5.92999420	      1.96035627	     11.40126763	      0.43611400	      0.00000000	      3.37902280	      1.81145382	     -4.11945617	      1.75364546	     -5.20804380	     11.84459707	     22.06814666	     89.01229946	     -3.07459636	     -6.50334587	     10.78454121	     25.82594482	     81.70033355
      0.16666670	     -2.66933575	      0.00498265	     -3.97149284	     -1.56339549	      0.98727055	      0.03097667	      0.12896076	      2.36273226	      1.08497626	      5.47189460	      8.82506577	     -4.92127385	      0.00000000	     -0.98811323	      1.60267105	     -5.88036639	      2.05977226	     11.28610881	      0.44029121	      0.00000000	      3.38132695	      1.72503395	     -4.25051554	      1.55174969	     -5.21871288	     11.84539498	     22.00009742	     89.01905116	     -3.00213390	     -6.58617178	     10.78546764	     25.76979978	     81.66806721
      0.18333330	     -2.00492100	     -0.05018686	     -3.64513268	     -1.56231954	      0.98835905	      0.03071112	     -1.06119709	      2.40277635	      1.08757691	      4.74341613	      8.36942007	     -5.44849684	      0.00000000	     -1.93506429	      1.58574938	     -5.31527973	      1.73552027	     10.78839591	      0.02013439	      0.00000000	      2.56265560	      1.64367120	     -4.49075777	      1.66377914	     -5.10209788	     11.76612625	     21.95645479	     89.13126356	     -2.48817494	     -6.62056657	     11.15421913	     24.84381171	     81.14732176
      0.20000000	     -2.04270634	     -0.04661298	     -3.62849164	     -1.56109544	      0.98822923	      0.03084187	     -1.05801685	      2.40629678	      1.09238848	      4.73882095	      8.36803144	     -5.44854126	      0.00000000	     -1.98511294	      1.58529503	     -5.31297993	      1.75419312	     10.78379075	      0.02237207	      0.00000000	      2.56559688	      1.64060397	     -4.50002205	      1.64869367	     -5.10499399	     11.76617871	     21.95053993	     89.13188999	     -2.47951257	     -6.62450731	     11.15499118	     24.84421248	     81.14512952
      0.21666670	     -2.00582310	     -0.09667990	     -3.35894373	     -1.55960753	      0.98836703	      0.03086385	     -1.49205547	      2.50171937	      1.01846271	      4.13513642	      8.26754802	     -5.57857682	      0.00000000	     -2.35802317	      1.53206825	     -4.96562722	      1.35362781	     10.60828025	      0.26576457	      0.00000000	      2.88241937	      1.56767715	     -4.63897350	      1.15079707	     -5.07576268	     11.78788932	     21.77220426	     89.16432125	     -2.48098114	     -6.75148623	     11.22287480	     24.70498881	     81.05685895
      0.23333330	     -1.61890533	     -0.15204902	     -3.19618136	     -1.56004141	      0.98919841	      0.03073708	     -2.24217869	      2.56655994	      1.07923959	      3.47480108	      7.52630021	     -5.94492433	      0.00000000	     -3.03050410	      1.51465633	     -4.78124640	      1.01319134	     10.37649413	      0.31292278	      0.00000000	      2.41530143	      1.55252573	     -4.89857497	      1.26223308	     -5.05474842	     11.76253907	     21.66917709	     89.28956554	     -2.16509537	     -6.74513811	     11.66336285	     24.15293100	     80.71856981
